<?xml version="1.0" standalone="no"?>
<!DOCTYPE svg PUBLIC "-//W3C//DTD SVG 20010904//EN"
 "http://www.w3.org/TR/2001/REC-SVG-20010904/DTD/svg10.dtd">
<svg version="1.0" xmlns="http://www.w3.org/2000/svg"
 width="192.000000pt" height="192.000000pt" viewBox="0 0 192.000000 192.000000"
 preserveAspectRatio="xMidYMid meet">

<g transform="translate(0.000000,192.000000) scale(0.100000,-0.100000)"
fill="#000000" stroke="none">
<path d="M115 1901 c-48 -22 -79 -54 -100 -103 -13 -33 -15 -138 -15 -840 0
-759 1 -805 19 -843 22 -48 54 -79 103 -100 33 -13 138 -15 840 -15 759 0 805
1 843 19 48 22 79 54 100 103 13 33 15 138 15 838 0 700 -2 805 -15 838 -21
49 -52 81 -100 103 -38 18 -83 19 -845 19 -762 0 -807 -1 -845 -19z m1453
-351 c41 -5 105 -19 143 -30 62 -19 69 -23 64 -43 -3 -12 -14 -69 -23 -127
l-18 -105 -29 2 c-15 1 -32 8 -37 15 -4 7 -8 50 -8 95 l0 81 -32 12 c-51 18
-180 24 -233 11 -61 -15 -121 -54 -145 -94 -42 -68 -15 -178 56 -234 22 -16
117 -74 212 -129 199 -112 267 -173 297 -265 21 -64 16 -148 -13 -205 -89
-173 -383 -223 -659 -113 -29 12 -53 24 -53 26 0 12 31 220 36 241 4 19 10 23
37 20 l32 -3 3 -97 3 -98 39 -20 c84 -43 224 -61 301 -40 123 34 182 160 128
275 -26 55 -44 68 -257 190 -194 111 -233 144 -270 224 -83 181 44 378 263
410 81 12 80 12 163 1z m-674 -21 c6 -6 -29 -232 -38 -248 -3 -5 -18 -6 -34
-2 -26 7 -27 9 -30 89 l-3 82 -220 0 -220 0 6 -167 c3 -93 8 -192 11 -220 l5
-53 210 0 209 0 0 -34 0 -33 -112 -7 c-62 -3 -157 -9 -210 -13 l-97 -6 -5 -51
c-3 -28 -8 -129 -11 -224 l-6 -172 228 2 228 3 23 79 c23 82 32 96 68 96 20 0
20 -4 16 -117 -2 -65 -9 -127 -14 -137 -10 -18 -20 -18 -187 -12 -235 9 -474
9 -548 1 -57 -7 -61 -6 -68 15 -4 12 -5 24 -2 26 2 3 33 13 68 23 l64 18 3
491 2 491 -57 16 c-32 9 -64 18 -70 20 -15 5 -17 27 -3 41 10 10 784 13 794 3z"/>
</g>
</svg>
